# xmcd
#
# Track frame offsets: 
#        150
#        15177
#        27037
#        39845
#        53095
#        65595
#        79775
#        93005
#        106100
#        118332
#        130527
#        142115
#        154125
#        167587
#        180770
#        192982
#
# Disc length: 2734 seconds
#
# Revision: 7
# Processed by: cddbd v1.5.2PL0 Copyright (c) Steve Scherf et al.
# Submitted via: ExactAudioCopy v1.1
#
DISCID=b90aac10
DTITLE=Various Artist - Messed Up In Love... and Other Tales of Woe (
DTITLE=Roots N' Blues)
DYEAR=1996
DGENRE=Blues
TTITLE0=Barbecue Bob - Beggin' For Love (mono)
TTITLE1=Buddy Moss - Love Me, Baby, Love Me (mono)
TTITLE2=Emmett Miller - Lovesick Blues (mono)
TTITLE3=Bessie Smith - It Makes My Love Come Down (mono)
TTITLE4=Bo Carter - I Love That Thing (mono)
TTITLE5=Lonnie Johnson - Careless Love (mono)
TTITLE6=Mamie Smith - 'U' Need Some Lovin' Blues (mono)
TTITLE7=Blind Willie McTell - Love Makin' Mama #1 (mono)
TTITLE8=Big Bill Broonzy - Messed Up In Love (mono)
TTITLE9=Peter Cleighton - Love Is Gone (mono)
TTITLE10=Curtis Jones - Moonlight Lover Blues (mono)
TTITLE11=Merline Johnson - Love Shows Weakness (mono)
TTITLE12=Big Joe and His Washboard Band - I Love You Baby (mono)
TTITLE13=Bill Gaither - Love Trifling Blues (mono)
TTITLE14=Memphis Minnie - When You Love Me (mono)
TTITLE15=Blind Boy Fuller - Lost Lover Blues (mono)
EXTD=LABEL =Sony Music Entertainment Inc.\nID =CK52831\nUPC =07464-
EXTD=52831-28\nCOPYRIGHT =1996 YEAR: 1996
EXTT0=
EXTT1=
EXTT2=
EXTT3=
EXTT4=
EXTT5=
EXTT6=
EXTT7=
EXTT8=
EXTT9=
EXTT10=
EXTT11=
EXTT12=
EXTT13=
EXTT14=
EXTT15=
PLAYORDER=
